<svg width="49" height="78" viewBox="0 0 49 78" fill="none" xmlns="http://www.w3.org/2000/svg">
<g clip-path="url(#clip0_208_249)">
<path fill-rule="evenodd" clip-rule="evenodd" d="M21.8682 52.1919H26.825V75.8006V75.9472H26.8196C26.7345 77.0936 25.6598 78 24.3466 78C23.0333 78 21.9586 77.0936 21.8736 75.9472H21.8682V75.8006V52.1919ZM25.3522 75H23.2218C23.2218 75 22.806 76.1915 23.2218 76.7143C23.7415 77.3679 24.8325 77.3679 25.3522 76.7143C25.768 76.1915 25.3522 75 25.3522 75Z" fill="#0B0B0B"/>
<path d="M24.4923 52.4849C38.0191 52.4849 48.9847 41.4554 48.9847 27.8497C48.9847 14.2441 38.0191 3.2146 24.4923 3.2146C10.9656 3.2146 0 14.2441 0 27.8497C0 41.4554 10.9656 52.4849 24.4923 52.4849Z" fill="#0D0D0D"/>
<path d="M24.4925 46.7548C35.1207 46.7548 43.7365 38.417 43.7365 28.1318C43.7365 17.8466 35.1207 9.50879 24.4925 9.50879C13.8644 9.50879 5.24854 17.8466 5.24854 28.1318C5.24854 38.417 13.8644 46.7548 24.4925 46.7548Z" fill="url(#paint0_linear_208_249)" fill-opacity="0.84"/>
<path fill-rule="evenodd" clip-rule="evenodd" d="M24.5001 0C22.4977 0 20.5671 0.0219682 19.5357 1.74831C18.7732 3.0245 19.5357 5.56089 19.5357 5.56089H29.4492C29.4492 5.56089 30.2117 3.0245 29.4492 1.74831C28.4178 0.0219682 26.5025 0 24.5001 0ZM24.287 1.07143C23.428 1.07143 22.5936 1.09284 22.1566 1.83673C21.8422 2.37192 22.1566 3.42857 22.1566 3.42857H26.4175C26.4175 3.42857 26.7319 2.37192 26.4175 1.83673C25.9804 1.09284 25.1461 1.07143 24.287 1.07143Z" fill="#080808"/>
</g>
<defs>
<linearGradient id="paint0_linear_208_249" x1="39.8393" y1="43.2857" x2="18.38" y2="15.7637" gradientUnits="userSpaceOnUse">
<stop stop-color="#292626"/>
<stop offset="1" stop-color="#514949"/>
</linearGradient>
<clipPath id="clip0_208_249">
<rect width="49" height="78" fill="white"/>
</clipPath>
</defs>
</svg>
