<svg width="233" height="96" viewBox="0 0 233 96" fill="none" xmlns="http://www.w3.org/2000/svg">
<path d="M92.658 95.9687C91.9939 92.5238 93.0203 81.574 89.2165 81.574C89.2165 81.574 53.5329 83.7885 31.9779 84.7113C28.9986 84.8388 27.8858 87.419 24.9137 87.6641C17.6803 88.2606 12.6018 82.0248 11.3286 74.7457C10.9562 72.6171 11.3286 69.2092 11.3286 69.2092H193.55C193.55 69.2092 204.026 69.9833 210.396 71.9775C215.634 73.6175 223.256 77.6985 223.256 77.6985C223.256 77.6985 209.777 83.7105 200.795 86.5568C179.245 93.3863 163.2 93.05 143.557 94.6769C123.739 96.3183 92.658 95.9687 92.658 95.9687Z" fill="black"/>
<path d="M28.8946 40.4C26.5746 40.4 24.5346 39.9733 22.7746 39.12C21.0146 38.24 19.5479 37.08 18.3746 35.64C17.2279 34.1733 16.3613 32.5467 15.7746 30.76C15.1879 28.9467 14.8946 27.0933 14.8946 25.2C14.8946 23.3067 15.1879 21.4533 15.7746 19.64C16.3613 17.8267 17.2279 16.2 18.3746 14.76C19.5479 13.2933 21.0146 12.1333 22.7746 11.28C24.5346 10.4267 26.5746 10 28.8946 10C30.8146 10 32.4546 10.2533 33.8146 10.76C35.2013 11.24 36.3479 11.8667 37.2546 12.64C38.1879 13.4133 38.9346 14.24 39.4946 15.12C40.0813 16 40.5079 16.8267 40.7746 17.6C41.0679 18.3733 41.2546 19.0133 41.3346 19.52C41.4413 20 41.4946 20.24 41.4946 20.24H37.5746C37.5746 20.24 37.5213 20.0267 37.4146 19.6C37.3079 19.1467 37.0946 18.6 36.7746 17.96C36.4546 17.2933 35.9746 16.6267 35.3346 15.96C34.6946 15.2933 33.8546 14.7467 32.8146 14.32C31.7746 13.8667 30.4813 13.64 28.9346 13.64C27.2546 13.64 25.7879 13.9733 24.5346 14.64C23.2813 15.28 22.2279 16.16 21.3746 17.28C20.5479 18.3733 19.9213 19.6133 19.4946 21C19.0946 22.36 18.8946 23.76 18.8946 25.2C18.8946 26.64 19.0946 28.0533 19.4946 29.44C19.9213 30.8 20.5479 32.04 21.3746 33.16C22.2279 34.2533 23.2813 35.1333 24.5346 35.8C25.7879 36.44 27.2546 36.76 28.9346 36.76C30.4813 36.76 31.7746 36.5333 32.8146 36.08C33.8546 35.6267 34.6946 35.08 35.3346 34.44C35.9746 33.7733 36.4546 33.12 36.7746 32.48C37.0946 31.8133 37.3079 31.2533 37.4146 30.8C37.5213 30.3467 37.5746 30.12 37.5746 30.12H41.4946C41.4946 30.12 41.4413 30.3733 41.3346 30.88C41.2546 31.36 41.0679 32 40.7746 32.8C40.5079 33.5733 40.0813 34.4 39.4946 35.28C38.9346 36.1333 38.1879 36.96 37.2546 37.76C36.3479 38.5333 35.2013 39.1733 33.8146 39.68C32.4546 40.16 30.8146 40.4 28.8946 40.4ZM43.9087 40L54.3487 10.4H59.2687L69.7487 40H65.5887L63.1087 32.92H50.5487L48.0687 40H43.9087ZM51.7487 29.4H61.9087L56.8287 14.88L51.7487 29.4ZM74.7618 40V10.4H78.6818V36.56H93.9218V40H74.7618ZM98.3227 40L108.763 10.4H113.683L124.163 40H120.003L117.523 32.92H104.963L102.483 40H98.3227ZM106.163 29.4H116.323L111.243 14.88L106.163 29.4ZM129.176 40V10.4H138.776C141.149 10.4 143.216 10.8267 144.976 11.68C146.736 12.5067 148.203 13.6267 149.376 15.04C150.549 16.4533 151.429 18.04 152.016 19.8C152.603 21.56 152.896 23.36 152.896 25.2C152.896 27.04 152.603 28.84 152.016 30.6C151.429 32.36 150.549 33.9467 149.376 35.36C148.203 36.7733 146.736 37.9067 144.976 38.76C143.216 39.5867 141.149 40 138.776 40H129.176ZM138.616 13.84H133.096V36.56H138.616C140.349 36.56 141.856 36.24 143.136 35.6C144.443 34.96 145.523 34.1067 146.376 33.04C147.256 31.9467 147.909 30.72 148.336 29.36C148.763 28 148.976 26.6133 148.976 25.2C148.976 23.7867 148.763 22.4 148.336 21.04C147.909 19.68 147.256 18.4667 146.376 17.4C145.523 16.3067 144.443 15.44 143.136 14.8C141.856 14.16 140.349 13.84 138.616 13.84ZM158.277 40V10.4H162.197V40H158.277ZM168.59 40V10.4H172.11L187.55 32.92V10.4H191.47V40H187.95L172.51 17.52V40H168.59ZM197.887 40V10.4H216.687V13.84H201.807V23.2H214.847V26.64H201.807V36.56H216.887V40H197.887Z" fill="black"/>
</svg>
