<svg width="279" height="134" viewBox="0 0 279 134" fill="none" xmlns="http://www.w3.org/2000/svg">
<path d="M175.48 78.5H275.48" stroke="black" stroke-width="5"/>
<path d="M1 78.5H101" stroke="black" stroke-width="5"/>
<path fill-rule="evenodd" clip-rule="evenodd" d="M135.607 105.876H141.071V131.763H141.065C140.972 133.012 139.787 134 138.339 134C136.892 134 135.707 133.012 135.613 131.763H135.607V105.876ZM139.448 130.731H137.099C137.099 130.731 136.641 132.029 137.099 132.599C137.672 133.311 138.875 133.311 139.448 132.599C139.906 132.029 139.448 130.731 139.448 130.731Z" fill="#0B0B0B"/>
<path d="M165.5 79.3492C165.5 94.1758 153.412 106.195 138.5 106.195C123.588 106.195 111.5 94.1758 111.5 79.3492C111.5 64.5226 123.588 52.5032 138.5 52.5032C153.412 52.5032 165.5 64.5226 165.5 79.3492Z" fill="#0D0D0D"/>
<path d="M159.714 79.6564C159.714 90.8647 150.216 99.9507 138.5 99.9507C126.784 99.9507 117.286 90.8647 117.286 79.6564C117.286 68.4482 126.784 59.3621 138.5 59.3621C150.216 59.3621 159.714 68.4482 159.714 79.6564Z" fill="url(#paint0_linear_133_246)" fill-opacity="0.84"/>
<path fill-rule="evenodd" clip-rule="evenodd" d="M138.508 49C136.301 49 134.173 49.0239 133.036 50.9052C132.195 52.2959 133.036 55.06 133.036 55.06H143.964C143.964 55.06 144.805 52.2959 143.964 50.9052C142.827 49.0239 140.716 49 138.508 49ZM138.274 50.1676C137.327 50.1676 136.407 50.1909 135.925 51.0016C135.578 51.5848 135.925 52.7363 135.925 52.7363H140.622C140.622 52.7363 140.969 51.5848 140.622 51.0016C140.14 50.1909 139.221 50.1676 138.274 50.1676Z" fill="#080808"/>
<path d="M21.5234 39.52C18.334 39.52 15.5434 38.9653 13.1514 37.856C10.794 36.712 8.81804 35.204 7.22337 33.332C5.62871 31.4253 4.43271 29.2933 3.63538 26.936C2.83804 24.5787 2.43938 22.1693 2.43938 19.708C2.43938 17.2813 2.83804 14.8893 3.63538 12.532C4.43271 10.1747 5.62871 8.06 7.22337 6.188C8.81804 4.28133 10.794 2.77333 13.1514 1.664C15.5434 0.554664 18.334 -3.09944e-06 21.5234 -3.09944e-06C24.1927 -3.09944e-06 26.4634 0.346664 28.3354 1.04C30.242 1.69867 31.8194 2.56533 33.0674 3.64C34.35 4.68 35.3727 5.80667 36.1354 7.02C36.9327 8.19867 37.522 9.32533 37.9034 10.4C38.2847 11.44 38.5274 12.3067 38.6314 13C38.77 13.6587 38.8394 13.988 38.8394 13.988H30.8834C30.8834 13.988 30.814 13.7627 30.6754 13.312C30.5714 12.8267 30.346 12.2547 29.9994 11.596C29.6527 10.9027 29.1327 10.2267 28.4394 9.568C27.7807 8.90933 26.8794 8.35466 25.7354 7.904C24.626 7.41866 23.2394 7.176 21.5754 7.176C19.1834 7.176 17.1727 7.8 15.5434 9.048C13.9487 10.2613 12.7354 11.8213 11.9034 13.728C11.106 15.6347 10.7074 17.628 10.7074 19.708C10.7074 21.788 11.106 23.7987 11.9034 25.74C12.7354 27.6467 13.9487 29.224 15.5434 30.472C17.1727 31.6853 19.1834 32.292 21.5754 32.292C23.2394 32.292 24.626 32.0667 25.7354 31.616C26.8794 31.1653 27.7807 30.6107 28.4394 29.952C29.1327 29.2587 29.6527 28.5827 29.9994 27.924C30.346 27.2307 30.5714 26.6587 30.6754 26.208C30.814 25.7573 30.8834 25.532 30.8834 25.532H38.8394C38.8394 25.532 38.77 25.8787 38.6314 26.572C38.5274 27.2307 38.2847 28.0973 37.9034 29.172C37.522 30.212 36.9327 31.3387 36.1354 32.552C35.3727 33.7307 34.35 34.8573 33.0674 35.932C31.8194 36.972 30.242 37.8387 28.3354 38.532C26.4634 39.1907 24.1927 39.52 21.5234 39.52ZM40.4116 39L53.5156 0.52H64.1756L77.2796 39H68.8556L66.4116 31.46H51.3316L48.8356 39H40.4116ZM53.5676 24.492H64.1756L58.8716 8.424L53.5676 24.492ZM82.3524 39V0.52H90.3604V32.032H109.184V39H82.3524ZM113.79 39L126.894 0.52H137.554L150.658 39H142.234L139.79 31.46H124.71L122.214 39H113.79ZM126.946 24.492H137.554L132.25 8.424L126.946 24.492ZM155.731 39V0.52H170.291C173.411 0.52 176.15 1.07467 178.507 2.184C180.899 3.25867 182.875 4.71466 184.435 6.552C185.995 8.38933 187.174 10.452 187.971 12.74C188.769 15.028 189.167 17.368 189.167 19.76C189.167 22.152 188.769 24.492 187.971 26.78C187.174 29.068 185.995 31.1307 184.435 32.968C182.875 34.8053 180.899 36.2787 178.507 37.388C176.15 38.4627 173.411 39 170.291 39H155.731ZM169.927 7.54H163.739V31.876H169.927C172.458 31.876 174.538 31.2867 176.167 30.108C177.831 28.9293 179.062 27.404 179.859 25.532C180.691 23.66 181.107 21.7187 181.107 19.708C181.107 17.6973 180.691 15.7733 179.859 13.936C179.062 12.064 177.831 10.5387 176.167 9.36C174.538 8.14667 172.458 7.54 169.927 7.54ZM194.782 39V0.52H202.79V39H194.782ZM209.864 39V0.52H217.196L233.784 25.064V0.52H241.74V39H234.304L217.82 15.132V39H209.864ZM248.813 39V0.52H275.333V7.488H256.821V16.12H272.941V22.828H256.821V32.032H275.593V39H248.813Z" fill="black"/>
<defs>
<linearGradient id="paint0_linear_133_246" x1="160.032" y1="126.083" x2="110.928" y2="87.3656" gradientUnits="userSpaceOnUse">
<stop stop-color="#292626"/>
<stop offset="1" stop-color="#514949"/>
</linearGradient>
</defs>
</svg>
